# xmcd
#
# Track frame offsets:
#	150
#	18527
#	41929
#	58581
#	73358
#	93610
#	107262
#	123539
#	138466
#	156093
#	175595
#
# Disc length: 2904 seconds
#
# Revision: 1
# Processed by: cddbd v1.4b41PL2 Copyright (c) Steve Scherf et al.
# Submitted via: audiograbber 1.80
#
DISCID=9b0b560b
DTITLE=Unge Frustrerte Menn - Hodet I Sanden
DYEAR=1900
DGENRE=
TTITLE0=Hodet I Sanden
TTITLE1=Mål Og Mening
TTITLE2=Jeg Vil Bare Ha En mann
TTITLE3=Den Store Maler
TTITLE4=Sosialt Intelligent
TTITLE5=Den Siste Kronen
TTITLE6=Blå
TTITLE7=Motorsykkelgjengen
TTITLE8=Første April
TTITLE9=Ikke Full Engang
TTITLE10=Hjertesorg
EXTD=
EXTT0=
EXTT1=
EXTT2=
EXTT3=
EXTT4=
EXTT5=
EXTT6=
EXTT7=
EXTT8=
EXTT9=
EXTT10=
PLAYORDER=
